<svg xmlns="http://www.w3.org/2000/svg" xmlns:xlink="http://www.w3.org/1999/xlink" width="500" zoomAndPan="magnify" viewBox="0 0 375 112.499997" height="150" preserveAspectRatio="xMidYMid meet" version="1.0"><defs><g/></defs><g fill="#5e17eb" fill-opacity="1"><g transform="translate(3.489704, 73.548114)"><g><path d="M 2.734375 0.296875 L 2.734375 -32.125 L 10.03125 -32.765625 L 14.296875 -30.625 L 14.296875 -7.890625 L 20.265625 -8.40625 L 24.53125 -6.265625 L 24.53125 0.9375 L 7 2.4375 Z M 9.59375 -7.03125 L 9.59375 -32.296875 L 3.15625 -31.734375 L 3.15625 -0.125 L 19.828125 -1.578125 L 19.828125 -7.9375 Z M 9.59375 -7.03125 "/></g></g></g><g fill="#5e17eb" fill-opacity="1"><g transform="translate(27.795928, 73.548114)"><g><path d="M 16.640625 1.1875 C 16.328125 1.476562 15.832031 1.75 15.15625 2 C 14.488281 2.257812 13.773438 2.414062 13.015625 2.46875 C 12.867188 2.5 12.707031 2.515625 12.53125 2.515625 C 12.363281 2.515625 12.210938 2.515625 12.078125 2.515625 C 10.929688 2.515625 9.769531 2.363281 8.59375 2.0625 C 7.414062 1.769531 6.328125 1.300781 5.328125 0.65625 C 4.335938 0.0195312 3.535156 -0.8125 2.921875 -1.84375 C 2.304688 -2.882812 2 -4.132812 2 -5.59375 L 2 -23.03125 L 8.953125 -23.625 L 12.796875 -21.75 L 12.796875 -7.546875 C 12.941406 -7.691406 13.078125 -7.785156 13.203125 -7.828125 C 13.328125 -7.867188 13.445312 -7.988281 13.5625 -8.1875 L 13.5625 -23.625 L 20.46875 -24.234375 L 24.734375 -22.09375 L 24.734375 1.359375 L 18.171875 1.921875 Z M 13.984375 -23.25 L 13.984375 -8.109375 C 13.703125 -7.566406 13.328125 -7.128906 12.859375 -6.796875 C 12.390625 -6.472656 11.757812 -6.269531 10.96875 -6.1875 L 10.75 -6.1875 C 10.15625 -6.1875 9.632812 -6.382812 9.1875 -6.78125 C 8.75 -7.175781 8.53125 -7.859375 8.53125 -8.828125 L 8.53125 -23.15625 L 2.4375 -22.65625 L 2.4375 -5.59375 C 2.4375 -3.625 2.972656 -2.195312 4.046875 -1.3125 C 5.128906 -0.4375 6.46875 0 8.0625 0 L 8.875 0 C 10.238281 -0.144531 11.410156 -0.578125 12.390625 -1.296875 C 13.367188 -2.023438 13.972656 -2.914062 14.203125 -3.96875 L 14.328125 -3.921875 L 14.328125 -0.640625 L 20.046875 -1.15625 L 20.046875 -23.765625 Z M 13.984375 -23.25 "/></g></g></g><g fill="#5e17eb" fill-opacity="1"><g transform="translate(54.532774, 73.548114)"><g><path d="M 2 8.140625 L 2 -22.6875 L 8.53125 -23.25 L 9.5625 -22.734375 C 10.007812 -23.109375 10.53125 -23.425781 11.125 -23.6875 C 11.726562 -23.957031 12.414062 -24.125 13.1875 -24.1875 C 13.351562 -24.21875 13.519531 -24.234375 13.6875 -24.234375 C 13.863281 -24.234375 14.035156 -24.234375 14.203125 -24.234375 C 15.742188 -24.234375 17.226562 -23.945312 18.65625 -23.375 C 20.09375 -22.800781 21.382812 -21.9375 22.53125 -20.78125 C 23.6875 -19.632812 24.601562 -18.207031 25.28125 -16.5 C 25.96875 -14.800781 26.3125 -12.800781 26.3125 -10.5 C 26.3125 -6.457031 25.53125 -3.34375 23.96875 -1.15625 C 22.40625 1.03125 20.234375 2.238281 17.453125 2.46875 C 17.335938 2.5 17.210938 2.515625 17.078125 2.515625 C 16.953125 2.515625 16.816406 2.515625 16.671875 2.515625 C 15.878906 2.515625 15.191406 2.425781 14.609375 2.25 C 14.023438 2.082031 13.5625 1.929688 13.21875 1.796875 L 13.21875 9.6875 L 6.265625 10.28125 Z M 8.65625 -1.875 C 8.882812 -1.332031 9.328125 -0.882812 9.984375 -0.53125 C 10.640625 -0.175781 11.445312 0 12.40625 0 C 12.519531 0 12.640625 0 12.765625 0 C 12.898438 0 13.023438 -0.015625 13.140625 -0.046875 C 15.835938 -0.273438 17.925781 -1.453125 19.40625 -3.578125 C 20.882812 -5.710938 21.625 -8.726562 21.625 -12.625 C 21.625 -16.351562 20.941406 -19.144531 19.578125 -21 C 18.210938 -22.863281 16.347656 -23.796875 13.984375 -23.796875 C 13.878906 -23.796875 13.757812 -23.796875 13.625 -23.796875 C 13.5 -23.796875 13.363281 -23.785156 13.21875 -23.765625 C 11.882812 -23.648438 10.804688 -23.242188 9.984375 -22.546875 C 9.160156 -21.847656 8.578125 -21.054688 8.234375 -20.171875 L 8.109375 -20.171875 L 8.109375 -22.78125 L 2.4375 -22.3125 L 2.4375 7.671875 L 8.53125 7.171875 L 8.53125 -1.828125 Z M 11.390625 -5.71875 C 10.679688 -5.71875 10.0625 -5.898438 9.53125 -6.265625 C 9.007812 -6.640625 8.675781 -7.125 8.53125 -7.71875 L 8.53125 -13.609375 C 8.53125 -14.890625 8.832031 -15.941406 9.4375 -16.765625 C 10.050781 -17.585938 10.859375 -18.039062 11.859375 -18.125 L 12.109375 -18.125 C 13.023438 -18.125 13.796875 -17.644531 14.421875 -16.6875 C 15.046875 -15.738281 15.359375 -14.203125 15.359375 -12.078125 C 15.359375 -9.910156 15.070312 -8.335938 14.5 -7.359375 C 13.9375 -6.378906 13.023438 -5.832031 11.765625 -5.71875 Z M 13.21875 -6.609375 C 13.726562 -7.003906 14.140625 -7.644531 14.453125 -8.53125 C 14.765625 -9.414062 14.921875 -10.597656 14.921875 -12.078125 C 14.921875 -12.640625 14.898438 -13.171875 14.859375 -13.671875 C 14.816406 -14.171875 14.738281 -14.601562 14.625 -14.96875 C 14.113281 -14.800781 13.75 -14.46875 13.53125 -13.96875 C 13.320312 -13.46875 13.21875 -12.632812 13.21875 -11.46875 Z M 13.21875 -6.609375 "/></g></g></g><g fill="#5e17eb" fill-opacity="1"><g transform="translate(81.823969, 73.548114)"><g><path d="M 2.21875 -0.125 L 2.21875 -23.59375 L 5.125 -23.796875 L 2.125 -25.296875 L 2.125 -32.546875 L 9.25 -33.140625 L 13.515625 -31.015625 L 13.515625 -23.765625 L 10.5 -23.5 L 13.390625 -22.046875 L 13.390625 1.359375 L 6.484375 1.96875 Z M 2.5625 -32.15625 L 2.5625 -25.765625 L 8.828125 -26.28125 L 8.828125 -32.671875 Z M 2.640625 -23.203125 L 2.640625 -0.59375 L 8.703125 -1.109375 L 8.703125 -23.71875 Z M 2.640625 -23.203125 "/></g></g></g><g fill="#5e17eb" fill-opacity="1"><g transform="translate(97.473766, 73.548114)"><g><path d="M 13.34375 -0.171875 L 13.34375 -13.515625 C 13.007812 -13.179688 12.800781 -12.785156 12.71875 -12.328125 L 12.71875 1.828125 L 6.265625 2.46875 L 2 0.34375 L 2 -23.078125 L 8.53125 -23.671875 L 9.890625 -22.5625 C 10.378906 -22.957031 10.90625 -23.316406 11.46875 -23.640625 C 12.039062 -23.972656 12.722656 -24.171875 13.515625 -24.234375 C 13.660156 -24.234375 13.789062 -24.238281 13.90625 -24.25 C 14.019531 -24.257812 14.132812 -24.265625 14.25 -24.265625 C 15.53125 -24.265625 16.785156 -24.035156 18.015625 -23.578125 C 19.253906 -23.128906 20.363281 -22.5 21.34375 -21.6875 C 22.332031 -20.875 23.113281 -19.925781 23.6875 -18.84375 C 24.269531 -17.769531 24.5625 -16.609375 24.5625 -15.359375 L 24.5625 1.328125 L 17.609375 1.921875 Z M 19.875 -18.171875 C 19.875 -20.128906 19.335938 -21.5625 18.265625 -22.46875 C 17.203125 -23.382812 15.890625 -23.84375 14.328125 -23.84375 C 14.210938 -23.84375 14.09375 -23.84375 13.96875 -23.84375 C 13.84375 -23.84375 13.707031 -23.828125 13.5625 -23.796875 C 12.164062 -23.679688 10.984375 -23.148438 10.015625 -22.203125 C 9.054688 -21.253906 8.460938 -20.148438 8.234375 -18.890625 L 8.109375 -18.890625 L 8.109375 -23.203125 L 2.4375 -22.6875 L 2.4375 -0.078125 L 8.53125 -0.640625 L 8.53125 -14.5 C 8.675781 -15.1875 8.992188 -15.8125 9.484375 -16.375 C 9.984375 -16.945312 10.632812 -17.273438 11.4375 -17.359375 L 11.609375 -17.359375 C 12.203125 -17.359375 12.710938 -17.148438 13.140625 -16.734375 C 13.566406 -16.328125 13.78125 -15.65625 13.78125 -14.71875 L 13.78125 -0.640625 L 19.875 -1.1875 Z M 19.875 -18.171875 "/></g></g></g><g fill="#5e17eb" fill-opacity="1"><g transform="translate(124.04004, 73.548114)"><g><path d="M 25.421875 -5.71875 C 24.648438 -3.320312 23.519531 -1.390625 22.03125 0.078125 C 20.539062 1.554688 18.515625 2.410156 15.953125 2.640625 C 15.640625 2.671875 15.332031 2.691406 15.03125 2.703125 C 14.738281 2.722656 14.4375 2.734375 14.125 2.734375 C 11.644531 2.734375 9.414062 2.226562 7.4375 1.21875 C 5.46875 0.207031 3.898438 -1.304688 2.734375 -3.328125 C 1.566406 -5.347656 0.984375 -7.847656 0.984375 -10.828125 C 0.984375 -13.453125 1.429688 -15.710938 2.328125 -17.609375 C 3.222656 -19.515625 4.441406 -21.015625 5.984375 -22.109375 C 7.535156 -23.210938 9.304688 -23.847656 11.296875 -24.015625 C 11.503906 -24.046875 11.710938 -24.0625 11.921875 -24.0625 C 12.140625 -24.0625 12.347656 -24.0625 12.546875 -24.0625 C 14.128906 -24.0625 15.695312 -23.78125 17.25 -23.21875 C 18.800781 -22.664062 20.207031 -21.804688 21.46875 -20.640625 C 22.738281 -19.472656 23.75 -17.972656 24.5 -16.140625 C 25.257812 -14.304688 25.640625 -12.113281 25.640625 -9.5625 C 25.640625 -9.332031 25.640625 -9.09375 25.640625 -8.84375 C 25.640625 -8.601562 25.625 -8.367188 25.59375 -8.140625 L 21.109375 -7.765625 Z M 15.359375 -9 C 15.097656 -8.03125 14.625 -7.234375 13.9375 -6.609375 C 13.257812 -5.984375 12.378906 -5.613281 11.296875 -5.5 L 10.96875 -5.5 C 10 -5.5 9.203125 -5.851562 8.578125 -6.5625 C 7.953125 -7.28125 7.640625 -8.265625 7.640625 -9.515625 L 20.90625 -10.65625 C 20.925781 -10.945312 20.9375 -11.226562 20.9375 -11.5 C 20.9375 -11.769531 20.9375 -12.03125 20.9375 -12.28125 C 20.9375 -15.863281 20.171875 -18.648438 18.640625 -20.640625 C 17.109375 -22.628906 14.988281 -23.625 12.28125 -23.625 C 12.144531 -23.625 12 -23.625 11.84375 -23.625 C 11.6875 -23.625 11.519531 -23.613281 11.34375 -23.59375 C 9.4375 -23.445312 7.726562 -22.835938 6.21875 -21.765625 C 4.71875 -20.703125 3.539062 -19.242188 2.6875 -17.390625 C 1.832031 -15.546875 1.40625 -13.359375 1.40625 -10.828125 C 1.40625 -7.160156 2.226562 -4.414062 3.875 -2.59375 C 5.53125 -0.78125 7.722656 0.125 10.453125 0.125 C 10.648438 0.125 10.847656 0.125 11.046875 0.125 C 11.242188 0.125 11.441406 0.109375 11.640625 0.078125 C 14.085938 -0.117188 16.03125 -0.910156 17.46875 -2.296875 C 18.90625 -3.691406 19.9375 -5.425781 20.5625 -7.5 Z M 7.84375 -14.296875 C 7.84375 -15.234375 8.171875 -16.039062 8.828125 -16.71875 C 9.484375 -17.40625 10.320312 -17.789062 11.34375 -17.875 L 11.734375 -17.875 C 12.585938 -17.875 13.289062 -17.625 13.84375 -17.125 C 14.394531 -16.625 14.671875 -15.878906 14.671875 -14.890625 Z M 11.296875 -6.875 C 11.296875 -6.726562 11.359375 -6.582031 11.484375 -6.4375 C 11.617188 -6.300781 11.757812 -6.160156 11.90625 -6.015625 C 12.414062 -6.160156 12.8125 -6.332031 13.09375 -6.53125 C 13.375 -6.726562 13.617188 -6.925781 13.828125 -7.125 Z M 11.296875 -6.875 "/></g></g></g><g fill="#5e17eb" fill-opacity="1"><g transform="translate(150.648961, 73.548114)"><g><path d="M 8.359375 -0.125 L -0.390625 -31.828125 L 7.59375 -32.5 L 11.859375 -30.375 L 13.90625 -22.140625 L 16.46875 -32.890625 L 24.1875 -33.578125 L 28.453125 -31.4375 L 19.875 1.359375 L 12.625 2 Z M 16.8125 -32.46875 L 13.09375 -16.671875 C 12.894531 -15.734375 12.722656 -14.800781 12.578125 -13.875 C 12.441406 -12.957031 12.34375 -12.195312 12.28125 -11.59375 C 12.226562 -11 12.203125 -10.703125 12.203125 -10.703125 L 12.078125 -10.703125 C 12.078125 -10.703125 12.039062 -10.992188 11.96875 -11.578125 C 11.894531 -12.160156 11.785156 -12.890625 11.640625 -13.765625 C 11.503906 -14.648438 11.320312 -15.566406 11.09375 -16.515625 L 7.25 -32.03125 L 0.171875 -31.4375 L 8.65625 -0.546875 L 15.234375 -1.15625 L 23.59375 -33.0625 Z M 16.8125 -32.46875 "/></g></g></g><g fill="#5e17eb" fill-opacity="1"><g transform="translate(179.645859, 73.548114)"><g><path d="M 24.5625 0.765625 C 23.65625 1.140625 22.71875 1.328125 21.75 1.328125 C 20.875 1.328125 20.066406 1.203125 19.328125 0.953125 C 18.585938 0.710938 18.015625 0.476562 17.609375 0.25 C 16.359375 1.757812 14.523438 2.628906 12.109375 2.859375 C 11.878906 2.890625 11.648438 2.90625 11.421875 2.90625 C 11.203125 2.90625 10.976562 2.90625 10.75 2.90625 C 8.988281 2.90625 7.367188 2.597656 5.890625 1.984375 C 4.410156 1.367188 3.222656 0.445312 2.328125 -0.78125 C 1.429688 -2.019531 0.984375 -3.550781 0.984375 -5.375 C 0.984375 -7.332031 1.53125 -8.894531 2.625 -10.0625 C 3.71875 -11.226562 5.359375 -12.335938 7.546875 -13.390625 L 5.375 -14.125 L 1.109375 -16.25 C 1.816406 -18.726562 2.972656 -20.59375 4.578125 -21.84375 C 6.191406 -23.09375 8.019531 -23.816406 10.0625 -24.015625 C 10.320312 -24.046875 10.578125 -24.066406 10.828125 -24.078125 C 11.085938 -24.085938 11.332031 -24.09375 11.5625 -24.09375 C 13.601562 -24.09375 15.460938 -23.71875 17.140625 -22.96875 C 18.828125 -22.21875 20.164062 -21.148438 21.15625 -19.765625 C 22.15625 -18.390625 22.65625 -16.773438 22.65625 -14.921875 L 22.65625 -6.828125 L 25.25 -5.546875 Z M 20.46875 -6.953125 C 19.789062 -6.640625 19.28125 -6.484375 18.9375 -6.484375 C 18.28125 -6.484375 17.953125 -6.910156 17.953125 -7.765625 L 17.953125 -17.0625 C 17.953125 -21.4375 15.75 -23.625 11.34375 -23.625 C 11.144531 -23.625 10.945312 -23.625 10.75 -23.625 C 10.550781 -23.625 10.335938 -23.613281 10.109375 -23.59375 C 8.148438 -23.394531 6.398438 -22.710938 4.859375 -21.546875 C 3.328125 -20.378906 2.25 -18.6875 1.625 -16.46875 L 6.390625 -14.890625 C 6.710938 -15.859375 7.148438 -16.640625 7.703125 -17.234375 C 8.253906 -17.828125 8.882812 -18.15625 9.59375 -18.21875 C 9.675781 -18.21875 9.757812 -18.222656 9.84375 -18.234375 C 9.9375 -18.242188 10.007812 -18.25 10.0625 -18.25 C 10.71875 -18.25 11.21875 -18.09375 11.5625 -17.78125 C 11.90625 -17.46875 12.078125 -17.046875 12.078125 -16.515625 C 12.078125 -15.910156 11.890625 -15.429688 11.515625 -15.078125 C 11.148438 -14.722656 10.640625 -14.390625 9.984375 -14.078125 L 8.0625 -13.1875 C 5.875 -12.15625 4.21875 -11.078125 3.09375 -9.953125 C 1.96875 -8.835938 1.40625 -7.3125 1.40625 -5.375 C 1.40625 -1.5625 3.195312 0.34375 6.78125 0.34375 C 6.945312 0.34375 7.113281 0.34375 7.28125 0.34375 C 7.457031 0.34375 7.632812 0.328125 7.8125 0.296875 C 9.175781 0.179688 10.351562 -0.144531 11.34375 -0.6875 C 12.34375 -1.226562 13.097656 -1.992188 13.609375 -2.984375 C 13.804688 -2.390625 14.234375 -1.921875 14.890625 -1.578125 C 15.546875 -1.234375 16.3125 -1.0625 17.1875 -1.0625 C 18.125 -1.0625 19.019531 -1.25 19.875 -1.625 Z M 9 -4.65625 C 8.519531 -4.65625 8.125 -4.785156 7.8125 -5.046875 C 7.5 -5.316406 7.34375 -5.710938 7.34375 -6.234375 C 7.34375 -7.453125 7.96875 -8.359375 9.21875 -8.953125 L 10.0625 -9.390625 C 10.457031 -9.585938 10.847656 -9.773438 11.234375 -9.953125 C 11.617188 -10.140625 11.910156 -10.347656 12.109375 -10.578125 L 12.109375 -7.640625 C 11.972656 -6.753906 11.632812 -6.046875 11.09375 -5.515625 C 10.550781 -4.992188 9.953125 -4.707031 9.296875 -4.65625 Z M 9 -4.65625 "/></g></g></g><g fill="#5e17eb" fill-opacity="1"><g transform="translate(205.316642, 73.548114)"><g><path d="M 16.640625 1.1875 C 16.328125 1.476562 15.832031 1.75 15.15625 2 C 14.488281 2.257812 13.773438 2.414062 13.015625 2.46875 C 12.867188 2.5 12.707031 2.515625 12.53125 2.515625 C 12.363281 2.515625 12.210938 2.515625 12.078125 2.515625 C 10.929688 2.515625 9.769531 2.363281 8.59375 2.0625 C 7.414062 1.769531 6.328125 1.300781 5.328125 0.65625 C 4.335938 0.0195312 3.535156 -0.8125 2.921875 -1.84375 C 2.304688 -2.882812 2 -4.132812 2 -5.59375 L 2 -23.03125 L 8.953125 -23.625 L 12.796875 -21.75 L 12.796875 -7.546875 C 12.941406 -7.691406 13.078125 -7.785156 13.203125 -7.828125 C 13.328125 -7.867188 13.445312 -7.988281 13.5625 -8.1875 L 13.5625 -23.625 L 20.46875 -24.234375 L 24.734375 -22.09375 L 24.734375 1.359375 L 18.171875 1.921875 Z M 13.984375 -23.25 L 13.984375 -8.109375 C 13.703125 -7.566406 13.328125 -7.128906 12.859375 -6.796875 C 12.390625 -6.472656 11.757812 -6.269531 10.96875 -6.1875 L 10.75 -6.1875 C 10.15625 -6.1875 9.632812 -6.382812 9.1875 -6.78125 C 8.75 -7.175781 8.53125 -7.859375 8.53125 -8.828125 L 8.53125 -23.15625 L 2.4375 -22.65625 L 2.4375 -5.59375 C 2.4375 -3.625 2.972656 -2.195312 4.046875 -1.3125 C 5.128906 -0.4375 6.46875 0 8.0625 0 L 8.875 0 C 10.238281 -0.144531 11.410156 -0.578125 12.390625 -1.296875 C 13.367188 -2.023438 13.972656 -2.914062 14.203125 -3.96875 L 14.328125 -3.921875 L 14.328125 -0.640625 L 20.046875 -1.15625 L 20.046875 -23.765625 Z M 13.984375 -23.25 "/></g></g></g><g fill="#5e17eb" fill-opacity="1"><g transform="translate(232.0535, 73.548114)"><g><path d="M 2.21875 -0.125 L 2.21875 -32.546875 L 9.34375 -33.140625 L 13.609375 -31.015625 L 13.609375 1.40625 L 6.484375 1.96875 Z M 2.640625 -32.15625 L 2.640625 -0.59375 L 8.921875 -1.109375 L 8.921875 -32.671875 Z M 2.640625 -32.15625 "/></g></g></g><g fill="#5e17eb" fill-opacity="1"><g transform="translate(247.831223, 73.548114)"><g><path d="M 18.640625 2 C 17.984375 2.03125 17.347656 2.066406 16.734375 2.109375 C 16.128906 2.148438 15.539062 2.171875 14.96875 2.171875 C 10.9375 2.171875 7.953125 1.429688 6.015625 -0.046875 C 4.078125 -1.523438 3.109375 -3.957031 3.109375 -7.34375 L 3.109375 -15.484375 L 0.390625 -16.84375 L 0.390625 -23.296875 L 3.109375 -23.5 L 3.109375 -30.453125 L 10.03125 -31.09375 L 14.296875 -28.96875 L 14.296875 -24.0625 L 17.828125 -22.3125 L 17.828125 -15.875 L 14.296875 -15.5625 L 14.296875 -7 L 15.734375 -7.125 L 20 -4.984375 Z M 15.1875 -6.609375 C 14.5625 -6.554688 14.015625 -6.503906 13.546875 -6.453125 C 13.078125 -6.410156 12.644531 -6.390625 12.25 -6.390625 C 11.050781 -6.390625 10.304688 -6.601562 10.015625 -7.03125 C 9.734375 -7.457031 9.59375 -8.195312 9.59375 -9.25 L 9.59375 -18.09375 L 13.140625 -18.390625 L 13.140625 -23.96875 L 9.59375 -23.671875 L 9.59375 -30.625 L 3.546875 -30.078125 L 3.546875 -23.125 L 0.8125 -22.90625 L 0.8125 -17.3125 L 3.546875 -17.53125 L 3.546875 -7.34375 C 3.546875 -5.632812 3.753906 -4.265625 4.171875 -3.234375 C 4.597656 -2.210938 5.332031 -1.472656 6.375 -1.015625 C 7.414062 -0.566406 8.859375 -0.34375 10.703125 -0.34375 C 11.191406 -0.34375 11.703125 -0.351562 12.234375 -0.375 C 12.773438 -0.40625 13.359375 -0.453125 13.984375 -0.515625 Z M 15.1875 -6.609375 "/></g></g></g><g fill="#5e17eb" fill-opacity="1"><g transform="translate(268.29963, 73.548114)"><g><path d="M 0.8125 0.640625 L 0.8125 -7.71875 L 8.484375 -8.40625 L 12.75 -6.265625 L 12.75 2.125 L 5.078125 2.765625 Z M 1.234375 -7.34375 L 1.234375 0.171875 L 8.0625 -0.390625 L 8.0625 -7.9375 Z M 1.234375 -7.34375 "/></g></g></g><g fill="#5e17eb" fill-opacity="1"><g transform="translate(281.945228, 73.548114)"><g><path d="M 25 -6.703125 C 24.507812 -3.910156 23.503906 -1.710938 21.984375 -0.109375 C 20.460938 1.492188 18.394531 2.410156 15.78125 2.640625 C 15.5 2.671875 15.210938 2.691406 14.921875 2.703125 C 14.640625 2.722656 14.359375 2.734375 14.078125 2.734375 C 12.316406 2.734375 10.644531 2.484375 9.0625 1.984375 C 7.488281 1.484375 6.097656 0.695312 4.890625 -0.375 C 3.679688 -1.457031 2.726562 -2.863281 2.03125 -4.59375 C 1.332031 -6.332031 0.984375 -8.425781 0.984375 -10.875 C 0.984375 -13.320312 1.398438 -15.503906 2.234375 -17.421875 C 3.078125 -19.335938 4.28125 -20.875 5.84375 -22.03125 C 7.40625 -23.1875 9.269531 -23.847656 11.4375 -24.015625 C 11.570312 -24.046875 11.722656 -24.0625 11.890625 -24.0625 C 12.066406 -24.0625 12.238281 -24.0625 12.40625 -24.0625 C 13.75 -24.0625 15.113281 -23.859375 16.5 -23.453125 C 17.894531 -23.054688 19.203125 -22.472656 20.421875 -21.703125 C 21.648438 -20.941406 22.675781 -20 23.5 -18.875 C 24.320312 -17.75 24.804688 -16.460938 24.953125 -15.015625 L 19.0625 -12.25 L 14.796875 -14.375 C 14.796875 -14.425781 14.789062 -14.472656 14.78125 -14.515625 C 14.769531 -14.566406 14.765625 -14.601562 14.765625 -14.625 C 13.960938 -14.425781 13.390625 -13.960938 13.046875 -13.234375 C 12.710938 -12.515625 12.546875 -11.203125 12.546875 -9.296875 C 12.546875 -8.753906 12.585938 -8.285156 12.671875 -7.890625 C 12.753906 -7.492188 12.867188 -7.109375 13.015625 -6.734375 C 13.492188 -6.992188 13.875 -7.378906 14.15625 -7.890625 C 14.445312 -8.398438 14.675781 -9.140625 14.84375 -10.109375 L 20.734375 -8.828125 Z M 15.1875 -9.5625 C 14.988281 -8.394531 14.582031 -7.492188 13.96875 -6.859375 C 13.351562 -6.234375 12.617188 -5.878906 11.765625 -5.796875 C 11.679688 -5.796875 11.597656 -5.789062 11.515625 -5.78125 C 11.429688 -5.769531 11.359375 -5.765625 11.296875 -5.765625 C 10.078125 -5.765625 9.210938 -6.238281 8.703125 -7.1875 C 8.191406 -8.132812 7.9375 -9.550781 7.9375 -11.4375 C 7.9375 -13.394531 8.269531 -14.867188 8.9375 -15.859375 C 9.601562 -16.859375 10.503906 -17.414062 11.640625 -17.53125 C 11.722656 -17.53125 11.804688 -17.535156 11.890625 -17.546875 C 11.984375 -17.566406 12.054688 -17.578125 12.109375 -17.578125 C 13.765625 -17.578125 14.757812 -16.707031 15.09375 -14.96875 L 20.171875 -17.359375 C 19.804688 -19.210938 18.941406 -20.71875 17.578125 -21.875 C 16.210938 -23.039062 14.476562 -23.625 12.375 -23.625 C 12.226562 -23.625 12.078125 -23.625 11.921875 -23.625 C 11.765625 -23.625 11.613281 -23.613281 11.46875 -23.59375 C 9.363281 -23.414062 7.554688 -22.765625 6.046875 -21.640625 C 4.546875 -20.523438 3.394531 -19.039062 2.59375 -17.1875 C 1.800781 -15.34375 1.40625 -13.238281 1.40625 -10.875 C 1.40625 -8.289062 1.789062 -6.1875 2.5625 -4.5625 C 3.332031 -2.9375 4.382812 -1.75 5.71875 -1 C 7.050781 -0.25 8.570312 0.125 10.28125 0.125 C 10.476562 0.125 10.675781 0.125 10.875 0.125 C 11.070312 0.125 11.269531 0.109375 11.46875 0.078125 C 13.976562 -0.117188 15.957031 -0.976562 17.40625 -2.5 C 18.851562 -4.019531 19.789062 -6.015625 20.21875 -8.484375 Z M 15.1875 -9.5625 "/></g></g></g><g fill="#5e17eb" fill-opacity="1"><g transform="translate(307.232223, 73.548114)"><g><path d="M 15.78125 2.609375 C 15.5 2.628906 15.207031 2.644531 14.90625 2.65625 C 14.601562 2.675781 14.296875 2.6875 13.984375 2.6875 C 11.429688 2.6875 9.171875 2.160156 7.203125 1.109375 C 5.242188 0.0546875 3.71875 -1.484375 2.625 -3.515625 C 1.53125 -5.546875 0.984375 -8 0.984375 -10.875 C 0.984375 -13.125 1.359375 -15.207031 2.109375 -17.125 C 2.859375 -19.039062 4.007812 -20.625 5.5625 -21.875 C 7.113281 -23.132812 9.070312 -23.863281 11.4375 -24.0625 C 11.65625 -24.082031 11.878906 -24.09375 12.109375 -24.09375 C 12.335938 -24.09375 12.566406 -24.09375 12.796875 -24.09375 C 14.617188 -24.09375 16.332031 -23.765625 17.9375 -23.109375 C 19.539062 -22.460938 20.960938 -21.539062 22.203125 -20.34375 C 23.441406 -19.15625 24.414062 -17.726562 25.125 -16.0625 C 25.832031 -14.394531 26.1875 -12.550781 26.1875 -10.53125 C 26.1875 -8.289062 25.8125 -6.207031 25.0625 -4.28125 C 24.3125 -2.363281 23.164062 -0.796875 21.625 0.421875 C 20.09375 1.648438 18.144531 2.378906 15.78125 2.609375 Z M 11.46875 0.046875 C 13.75 -0.148438 15.628906 -0.847656 17.109375 -2.046875 C 18.585938 -3.242188 19.6875 -4.769531 20.40625 -6.625 C 21.132812 -8.488281 21.5 -10.503906 21.5 -12.671875 C 21.5 -14.742188 21.175781 -16.601562 20.53125 -18.25 C 19.894531 -19.90625 18.914062 -21.222656 17.59375 -22.203125 C 16.269531 -23.179688 14.585938 -23.671875 12.546875 -23.671875 C 12.367188 -23.671875 12.191406 -23.671875 12.015625 -23.671875 C 11.847656 -23.671875 11.664062 -23.65625 11.46875 -23.625 C 9.195312 -23.425781 7.3125 -22.722656 5.8125 -21.515625 C 4.320312 -20.304688 3.210938 -18.773438 2.484375 -16.921875 C 1.765625 -15.078125 1.40625 -13.0625 1.40625 -10.875 C 1.40625 -8.832031 1.734375 -6.976562 2.390625 -5.3125 C 3.046875 -3.644531 4.039062 -2.328125 5.375 -1.359375 C 6.707031 -0.398438 8.382812 0.078125 10.40625 0.078125 C 10.570312 0.078125 10.738281 0.078125 10.90625 0.078125 C 11.082031 0.078125 11.269531 0.0664062 11.46875 0.046875 Z M 11.09375 -5.84375 C 10.039062 -5.84375 9.222656 -6.296875 8.640625 -7.203125 C 8.054688 -8.117188 7.765625 -9.53125 7.765625 -11.4375 C 7.765625 -13.425781 8.085938 -14.925781 8.734375 -15.9375 C 9.390625 -16.945312 10.300781 -17.503906 11.46875 -17.609375 L 11.859375 -17.609375 C 12.910156 -17.609375 13.71875 -17.160156 14.28125 -16.265625 C 14.851562 -15.367188 15.140625 -13.984375 15.140625 -12.109375 C 15.140625 -10.117188 14.816406 -8.601562 14.171875 -7.5625 C 13.535156 -6.53125 12.632812 -5.957031 11.46875 -5.84375 Z M 12.71875 -6.65625 C 14.050781 -7.394531 14.71875 -9.210938 14.71875 -12.109375 C 14.71875 -13.109375 14.628906 -13.960938 14.453125 -14.671875 C 13.710938 -14.554688 13.191406 -14.050781 12.890625 -13.15625 C 12.597656 -12.257812 12.453125 -10.972656 12.453125 -9.296875 C 12.453125 -8.273438 12.539062 -7.394531 12.71875 -6.65625 Z M 12.71875 -6.65625 "/></g></g></g><g fill="#5e17eb" fill-opacity="1"><g transform="translate(334.395492, 73.548114)"><g><path d="M 24.140625 -0.21875 L 24.140625 1.796875 L 17.28125 2.4375 L 13.21875 0.296875 L 13.21875 2.34375 L 6.265625 2.9375 L 2 0.8125 L 2 -22.609375 L 8.53125 -23.15625 L 9.6875 -22.140625 C 10.132812 -22.566406 10.6875 -22.925781 11.34375 -23.21875 C 12 -23.519531 12.664062 -23.703125 13.34375 -23.765625 C 13.457031 -23.765625 13.566406 -23.769531 13.671875 -23.78125 C 13.773438 -23.789062 13.878906 -23.796875 13.984375 -23.796875 C 15.148438 -23.796875 16.238281 -23.523438 17.25 -22.984375 C 18.257812 -22.453125 19.035156 -21.84375 19.578125 -21.15625 C 19.972656 -21.894531 20.566406 -22.582031 21.359375 -23.21875 C 22.160156 -23.863281 23.128906 -24.226562 24.265625 -24.3125 C 24.410156 -24.3125 24.5625 -24.316406 24.71875 -24.328125 C 24.875 -24.347656 25.035156 -24.359375 25.203125 -24.359375 C 26.941406 -24.359375 28.5625 -24.03125 30.0625 -23.375 C 31.570312 -22.71875 32.789062 -21.769531 33.71875 -20.53125 C 34.644531 -19.300781 35.109375 -17.800781 35.109375 -16.03125 L 35.109375 1.328125 L 28.15625 1.875 Z M 30.40625 -18.171875 C 30.40625 -20.128906 29.894531 -21.578125 28.875 -22.515625 C 27.851562 -23.460938 26.578125 -23.9375 25.046875 -23.9375 C 24.929688 -23.9375 24.816406 -23.925781 24.703125 -23.90625 C 24.585938 -23.894531 24.457031 -23.890625 24.3125 -23.890625 C 23.40625 -23.804688 22.601562 -23.519531 21.90625 -23.03125 C 21.207031 -22.550781 20.644531 -21.96875 20.21875 -21.28125 C 19.789062 -20.601562 19.492188 -19.90625 19.328125 -19.1875 L 19.1875 -19.234375 C 18.96875 -20.265625 18.4375 -21.210938 17.59375 -22.078125 C 16.757812 -22.941406 15.570312 -23.375 14.03125 -23.375 C 13.914062 -23.375 13.804688 -23.363281 13.703125 -23.34375 C 13.609375 -23.332031 13.503906 -23.328125 13.390625 -23.328125 C 11.992188 -23.210938 10.84375 -22.671875 9.9375 -21.703125 C 9.03125 -20.742188 8.460938 -19.648438 8.234375 -18.421875 L 8.109375 -18.390625 L 8.109375 -22.6875 L 2.4375 -22.21875 L 2.4375 0.34375 L 8.53125 -0.125 L 8.53125 -14.078125 C 8.675781 -14.785156 8.96875 -15.421875 9.40625 -15.984375 C 9.84375 -16.554688 10.445312 -16.875 11.21875 -16.9375 L 11.515625 -16.9375 C 12.109375 -16.9375 12.578125 -16.726562 12.921875 -16.3125 C 13.265625 -15.90625 13.4375 -15.234375 13.4375 -14.296875 L 13.4375 -0.125 L 19.453125 -0.6875 L 19.453125 -14.625 C 19.597656 -15.3125 19.890625 -15.9375 20.328125 -16.5 C 20.765625 -17.070312 21.351562 -17.390625 22.09375 -17.453125 L 22.390625 -17.453125 C 23.015625 -17.453125 23.488281 -17.25 23.8125 -16.84375 C 24.144531 -16.445312 24.3125 -15.78125 24.3125 -14.84375 L 24.3125 -0.6875 L 30.40625 -1.1875 Z M 30.40625 -18.171875 "/></g></g></g></svg>